<svg width="5975" height="498" viewBox="0 0 5975 498" fill="none" xmlns="http://www.w3.org/2000/svg">
<path d="M0.160156 419.798V104.033H212.294V163.723H71.481V229.792H196.75V289.482H71.481V419.798H0.160156Z" fill="white"/>
<path d="M375.152 426.177C352.902 426.177 333.7 423.139 317.546 417.064C301.392 410.685 287.982 402.027 277.314 391.092C266.951 379.852 259.179 366.639 253.998 351.45C249.121 335.958 246.683 318.947 246.683 300.417V104.033H318.003V294.494C318.003 307.252 319.375 318.188 322.118 327.301C325.166 336.11 329.128 343.4 334.005 349.172C339.186 354.64 345.282 358.589 352.292 361.019C359.607 363.449 367.532 364.664 376.066 364.664C393.439 364.664 407.459 359.348 418.127 348.716C429.099 338.085 434.586 320.01 434.586 294.494V104.033H505.906V300.417C505.906 318.947 503.316 335.958 498.134 351.45C492.953 366.942 485.028 380.308 474.361 391.547C463.693 402.483 450.13 410.988 433.671 417.064C417.213 423.139 397.706 426.177 375.152 426.177Z" fill="white"/>
<path d="M798.062 104.033V164.634H702.51V419.798H631.189V164.634H535.638V104.033H798.062Z" fill="white"/>
<path d="M956.365 426.177C934.116 426.177 914.914 423.139 898.76 417.064C882.606 410.685 869.196 402.027 858.528 391.092C848.165 379.852 840.393 366.639 835.211 351.45C830.335 335.958 827.897 318.947 827.897 300.417V104.033H899.217V294.494C899.217 307.252 900.589 318.188 903.332 327.301C906.38 336.11 910.342 343.4 915.219 349.172C920.4 354.64 926.496 358.589 933.506 361.019C940.821 363.449 948.746 364.664 957.28 364.664C974.653 364.664 988.673 359.348 999.341 348.716C1010.31 338.085 1015.8 320.01 1015.8 294.494V104.033H1087.12V300.417C1087.12 318.947 1084.53 335.958 1079.35 351.45C1074.17 366.942 1066.24 380.308 1055.57 391.547C1044.91 402.483 1031.34 410.988 1014.89 417.064C998.426 423.139 978.92 426.177 956.365 426.177Z" fill="white"/>
<path d="M1237.09 100.387C1284.64 100.387 1321.06 108.893 1346.36 125.904C1371.66 142.611 1384.3 168.735 1384.3 204.275C1384.3 226.45 1379.12 244.524 1368.76 258.498C1358.7 272.167 1344.07 282.951 1324.87 290.849C1331.27 298.747 1337.98 307.86 1344.99 318.188C1352 328.212 1358.85 338.844 1365.56 350.083C1372.57 361.019 1379.28 372.562 1385.68 384.713C1392.08 396.56 1398.02 408.255 1403.51 419.798H1323.5C1317.71 409.47 1311.76 398.99 1305.67 388.358C1299.88 377.726 1293.78 367.398 1287.38 357.374C1281.29 347.349 1275.19 337.933 1269.09 329.123C1263 320.01 1256.9 311.809 1250.81 304.518H1215.6V419.798H1144.28V108.589C1159.83 105.551 1175.83 103.425 1192.29 102.21C1209.05 100.995 1223.99 100.387 1237.09 100.387ZM1241.21 160.989C1236.02 160.989 1231.3 161.141 1227.03 161.444C1223.07 161.748 1219.26 162.052 1215.6 162.356V248.018H1235.72C1262.54 248.018 1281.74 244.676 1293.32 237.993C1304.91 231.311 1310.7 219.919 1310.7 203.82C1310.7 188.328 1304.75 177.392 1292.87 171.013C1281.29 164.33 1264.07 160.989 1241.21 160.989Z" fill="white"/>
<path d="M1437.79 419.798V104.033H1651.75V163.723H1509.11V225.691H1635.75V284.014H1509.11V360.108H1662.27V419.798H1437.79Z" fill="white"/>
<path d="M2366.08 104.033C2371.57 114.057 2377.81 126.511 2384.82 141.396C2392.14 155.977 2399.61 171.924 2407.23 189.239C2415.15 206.25 2422.92 223.716 2430.54 241.639C2438.16 259.561 2445.33 276.42 2452.03 292.216C2458.74 276.42 2465.9 259.561 2473.52 241.639C2481.14 223.716 2488.76 206.25 2496.38 189.239C2504.3 171.924 2511.77 155.977 2518.78 141.396C2526.09 126.511 2532.5 114.057 2537.98 104.033H2602.9C2605.95 124.992 2608.69 148.534 2611.13 174.658C2613.87 200.478 2616.16 227.514 2617.99 255.764C2620.12 283.71 2621.95 311.809 2623.48 340.059C2625.3 368.309 2626.83 394.889 2628.05 419.798H2558.55C2557.64 389.117 2556.42 355.703 2554.9 319.555C2553.37 283.407 2551.09 246.955 2548.04 210.199C2542.55 222.957 2536.46 237.082 2529.75 252.574C2523.05 268.066 2516.34 283.558 2509.64 299.051C2503.24 314.543 2496.99 329.427 2490.89 343.704C2484.8 357.677 2479.61 369.676 2475.35 379.7H2425.51C2421.25 369.676 2416.07 357.677 2409.97 343.704C2403.87 329.427 2397.47 314.543 2390.77 299.051C2384.37 283.558 2377.81 268.066 2371.11 252.574C2364.4 237.082 2358.31 222.957 2352.82 210.199C2349.77 246.955 2347.49 283.407 2345.96 319.555C2344.44 355.703 2343.22 389.117 2342.31 419.798H2272.81C2274.03 394.889 2275.41 368.309 2276.93 340.059C2278.76 311.809 2280.59 283.71 2282.42 255.764C2284.55 227.514 2286.83 200.478 2289.27 174.658C2292.02 148.534 2294.91 124.992 2297.96 104.033H2366.08Z" fill="white"/>
<path d="M2892.97 419.798C2889.61 408.862 2885.8 397.623 2881.54 386.08C2877.58 374.536 2873.61 362.993 2869.65 351.45H2746.21C2742.25 362.993 2738.13 374.536 2733.87 386.08C2729.9 397.623 2726.25 408.862 2722.89 419.798H2648.83C2660.72 385.776 2671.99 354.336 2682.66 325.478C2693.33 296.62 2703.69 269.433 2713.75 243.917C2724.11 218.401 2734.17 194.251 2743.93 171.469C2753.98 148.382 2764.35 125.904 2775.01 104.033H2843.13C2853.5 125.904 2863.71 148.382 2873.77 171.469C2883.82 194.251 2893.88 218.401 2903.94 243.917C2914.3 269.433 2924.82 296.62 2935.49 325.478C2946.15 354.336 2957.43 385.776 2969.32 419.798H2892.97ZM2807.47 175.57C2805.95 180.126 2803.66 186.353 2800.62 194.251C2797.57 202.149 2794.06 211.262 2790.1 221.59C2786.14 231.918 2781.72 243.309 2776.84 255.764C2772.27 268.218 2767.55 281.28 2762.67 294.95H2852.74C2847.86 281.28 2843.13 268.218 2838.56 255.764C2833.99 243.309 2829.57 231.918 2825.3 221.59C2821.34 211.262 2817.84 202.149 2814.79 194.251C2811.74 186.353 2809.3 180.126 2807.47 175.57Z" fill="white"/>
<path d="M3070.22 361.93C3073.57 362.234 3077.38 362.538 3081.65 362.841C3086.22 362.841 3091.55 362.841 3097.65 362.841C3133.31 362.841 3159.68 353.88 3176.74 335.958C3194.12 318.036 3202.8 293.279 3202.8 261.687C3202.8 228.577 3194.57 203.516 3178.11 186.505C3161.66 169.494 3135.6 160.989 3099.94 160.989C3095.06 160.989 3090.03 161.141 3084.85 161.444C3079.67 161.444 3074.79 161.748 3070.22 162.356V361.93ZM3276.41 261.687C3276.41 289.026 3272.14 312.872 3263.61 333.224C3255.07 353.577 3242.88 370.436 3227.03 383.801C3211.49 397.167 3192.44 407.191 3169.89 413.874C3147.33 420.557 3122.03 423.898 3093.99 423.898C3081.19 423.898 3066.26 423.291 3049.19 422.076C3032.12 421.165 3015.36 419.038 2998.9 415.697V108.133C3015.36 105.096 3032.43 103.121 3050.1 102.21C3068.09 100.995 3083.48 100.387 3096.28 100.387C3123.41 100.387 3147.94 103.425 3169.89 109.5C3192.14 115.576 3211.18 125.144 3227.03 138.206C3242.88 151.268 3255.07 167.975 3263.61 188.328C3272.14 208.68 3276.41 233.133 3276.41 261.687Z" fill="white"/>
<path d="M3324.55 419.798V104.033H3538.52V163.723H3395.87V225.691H3522.51V284.014H3395.87V360.108H3549.03V419.798H3324.55Z" fill="white"/>
<path d="M3688.78 104.033H3760.1V419.798H3688.78V104.033Z" fill="white"/>
<path d="M4034.6 419.798C4014.18 383.649 3992.08 347.957 3968.31 312.72C3944.53 277.483 3919.24 244.221 3892.42 212.933V419.798H3822.01V104.033H3880.07C3890.13 114.057 3901.25 126.359 3913.45 140.94C3925.64 155.521 3937.98 171.165 3950.48 187.872C3963.28 204.275 3975.93 221.438 3988.42 239.36C4000.92 256.979 4012.66 273.99 4023.63 290.393V104.033H4094.49V419.798H4034.6Z" fill="white"/>
<path d="M4254.55 419.798V104.033H4468.51V163.723H4325.87V225.691H4452.51V284.014H4325.87V360.108H4479.03V419.798H4254.55Z" fill="white"/>
<path d="M4644.27 426.177C4622.02 426.177 4602.82 423.139 4586.67 417.064C4570.51 410.685 4557.1 402.027 4546.44 391.092C4536.07 379.852 4528.3 366.639 4523.12 351.45C4518.24 335.958 4515.81 318.947 4515.81 300.417V104.033H4587.13V294.494C4587.13 307.252 4588.5 318.188 4591.24 327.301C4594.29 336.11 4598.25 343.4 4603.13 349.172C4608.31 354.64 4614.4 358.589 4621.41 361.019C4628.73 363.449 4636.65 364.664 4645.19 364.664C4662.56 364.664 4676.58 359.348 4687.25 348.716C4698.22 338.085 4703.71 320.01 4703.71 294.494V104.033H4775.03V300.417C4775.03 318.947 4772.44 335.958 4767.26 351.45C4762.08 366.942 4754.15 380.308 4743.48 391.547C4732.82 402.483 4719.25 410.988 4702.79 417.064C4686.33 423.139 4666.83 426.177 4644.27 426.177Z" fill="white"/>
<path d="M4925 100.387C4972.55 100.387 5008.97 108.893 5034.27 125.904C5059.56 142.611 5072.21 168.735 5072.21 204.275C5072.21 226.45 5067.03 244.524 5056.67 258.498C5046.61 272.167 5031.98 282.951 5012.78 290.849C5019.18 298.747 5025.89 307.86 5032.9 318.188C5039.91 328.212 5046.76 338.844 5053.47 350.083C5060.48 361.019 5067.18 372.562 5073.58 384.713C5079.99 396.56 5085.93 408.255 5091.41 419.798H5011.41C5005.62 409.47 4999.67 398.99 4993.58 388.358C4987.79 377.726 4981.69 367.398 4975.29 357.374C4969.19 347.349 4963.1 337.933 4957 329.123C4950.91 320.01 4944.81 311.809 4938.72 304.518H4903.51V419.798H4832.19V108.589C4847.74 105.551 4863.74 103.425 4880.2 102.21C4896.96 100.995 4911.89 100.387 4925 100.387ZM4929.11 160.989C4923.93 160.989 4919.21 161.141 4914.94 161.444C4910.98 161.748 4907.17 162.052 4903.51 162.356V248.018H4923.63C4950.45 248.018 4969.65 244.676 4981.23 237.993C4992.82 231.311 4998.61 219.919 4998.61 203.82C4998.61 188.328 4992.66 177.392 4980.78 171.013C4969.19 164.33 4951.97 160.989 4929.11 160.989Z" fill="white"/>
<path d="M5177.55 261.687C5177.55 277.179 5179.38 291.153 5183.04 303.607C5187 316.061 5192.49 326.845 5199.5 335.958C5206.81 344.767 5215.65 351.602 5226.02 356.462C5236.38 361.323 5248.27 363.753 5261.68 363.753C5274.78 363.753 5286.52 361.323 5296.88 356.462C5307.55 351.602 5316.39 344.767 5323.4 335.958C5330.71 326.845 5336.2 316.061 5339.86 303.607C5343.82 291.153 5345.8 277.179 5345.8 261.687C5345.8 246.195 5343.82 232.222 5339.86 219.768C5336.2 207.009 5330.71 196.226 5323.4 187.416C5316.39 178.303 5307.55 171.317 5296.88 166.456C5286.52 161.596 5274.78 159.166 5261.68 159.166C5248.27 159.166 5236.38 161.748 5226.02 166.912C5215.65 171.772 5206.81 178.759 5199.5 187.872C5192.49 196.681 5187 207.465 5183.04 220.223C5179.38 232.678 5177.55 246.499 5177.55 261.687ZM5419.41 261.687C5419.41 288.722 5415.29 312.568 5407.06 333.224C5399.14 353.577 5388.16 370.739 5374.14 384.713C5360.12 398.382 5343.36 408.71 5323.85 415.697C5304.65 422.683 5283.93 426.177 5261.68 426.177C5240.04 426.177 5219.62 422.683 5200.41 415.697C5181.21 408.71 5164.45 398.382 5150.12 384.713C5135.8 370.739 5124.52 353.577 5116.29 333.224C5108.06 312.568 5103.95 288.722 5103.95 261.687C5103.95 234.652 5108.22 210.958 5116.75 190.606C5125.28 169.95 5136.71 152.635 5151.04 138.662C5165.67 124.689 5182.43 114.209 5201.33 107.222C5220.53 100.235 5240.65 96.7421 5261.68 96.7421C5283.32 96.7421 5303.74 100.235 5322.94 107.222C5342.14 114.209 5358.9 124.689 5373.23 138.662C5387.56 152.635 5398.83 169.95 5407.06 190.606C5415.29 210.958 5419.41 234.652 5419.41 261.687Z" fill="white"/>
<path d="M5562.52 100.387C5609.76 100.387 5646.03 108.741 5671.33 125.448C5696.63 141.851 5709.28 168.887 5709.28 206.554C5709.28 244.524 5696.48 272.015 5670.88 289.026C5645.27 305.733 5608.7 314.087 5561.15 314.087H5538.75V419.798H5467.43V108.589C5482.97 105.551 5499.43 103.425 5516.8 102.21C5534.18 100.995 5549.42 100.387 5562.52 100.387ZM5567.09 160.989C5561.91 160.989 5556.73 161.141 5551.55 161.444C5546.67 161.748 5542.41 162.052 5538.75 162.356V253.486H5561.15C5585.84 253.486 5604.43 250.144 5616.93 243.461C5629.42 236.778 5635.67 224.324 5635.67 206.098C5635.67 197.289 5634 189.998 5630.64 184.227C5627.59 178.455 5623.02 173.899 5616.93 170.557C5611.14 166.912 5603.97 164.482 5595.44 163.267C5586.91 161.748 5577.46 160.989 5567.09 160.989Z" fill="white"/>
<path d="M5750.22 419.798V104.033H5964.18V163.723H5821.54V225.691H5948.18V284.014H5821.54V360.108H5974.7V419.798H5750.22Z" fill="white"/>
<path d="M1971.23 0.600098L1962.32 28.4725L1932.88 28.3537L1956.7 45.3935L1947.81 72.9094L1951.52 70.2035L1971.24 55.8879L1994.69 72.9094L1985.77 45.3935L2009.58 28.372H1980.27L1971.23 0.600098ZM1864.6 28.9662L1855.69 56.9575L1826.25 56.8386L1850.07 73.8875L1841.18 101.394L1864.61 84.3728L1888.06 101.394L1879.14 73.8875L1902.95 56.8569H1873.64L1864.6 28.9662ZM2078.07 29.0759L2076.65 33.5004L2069.05 56.9483L2039.74 56.8295L2063.54 73.979L2054.62 101.513L2078.07 84.3728L2101.52 101.513L2092.6 73.979L2116.38 56.8569H2087L2078.07 29.0759ZM2155.85 106.431L2146.92 134.423L2117.47 134.313L2141.42 151.353L2132.39 178.887L2136.13 176.163L2155.86 161.847L2179.29 178.869L2170.39 151.353L2194.19 134.331H2164.88L2155.85 106.431ZM1786.61 106.742L1777.71 134.624H1748.29L1772.09 151.654L1763.18 179.161L1786.62 162.14L1810.07 179.161L1801.16 151.654L1824.95 134.624H1795.65L1786.61 106.742ZM2184.19 212.427L2175.17 240.29H2145.86L2169.66 257.312L2160.74 284.846L2184.19 267.706L2207.64 284.846L2198.72 257.312L2222.52 240.29H2193.22L2184.19 212.427ZM1757.96 212.701L1749.05 240.583H1719.62L1743.53 257.613L1734.5 285.139L1757.97 268.099L1781.41 285.12L1772.5 257.613L1796.3 240.583H1766.99L1757.96 212.701ZM1786.61 318.871L1777.71 346.761H1748.29L1772.09 363.783L1763.18 391.299L1786.62 374.277L1810.07 391.299L1801.16 363.783L1824.95 346.761H1795.66L1786.61 318.871ZM2155.85 318.88L2146.92 346.761H2117.5L2141.42 363.783L2132.39 391.317L2155.86 374.277L2179.29 391.299L2170.39 363.783L2194.19 346.761H2164.88L2155.85 318.88ZM1864.82 396.647L1855.79 424.528H1826.48L1850.28 441.559L1841.37 469.075L1864.81 452.044L1888.25 469.075L1879.35 441.559L1903.15 424.528H1873.74L1864.82 396.647ZM2077.77 396.647L2068.74 424.528H2039.43L2063.22 441.559L2054.32 469.075L2077.76 452.044L2101.21 469.075L2092.29 441.559L2116.1 424.528H2086.69L2077.77 396.647ZM1971.23 424.83L1962.32 452.721H1932.91L1956.7 469.742L1947.81 497.258L1971.24 480.237L1994.69 497.258L1985.77 469.742L2009.58 452.721H1980.27L1971.23 424.83Z" fill="white"/>
</svg>
